<?xml version="1.0" encoding="UTF-8" standalone="no"?>
<!-- Uploaded to: SVG Repo, www.svgrepo.com, Generator: SVG Repo Mixer Tools -->

<svg
   width="800px"
   height="800px"
   viewBox="0 0 24 24"
   fill="none"
   version="1.1"
   id="svg6"
   sodipodi:docname="icon.svg"
   inkscape:version="1.1.2 (0a00cf5339, 2022-02-04)"
   xmlns:inkscape="http://www.inkscape.org/namespaces/inkscape"
   xmlns:sodipodi="http://sodipodi.sourceforge.net/DTD/sodipodi-0.dtd"
   xmlns="http://www.w3.org/2000/svg"
   xmlns:svg="http://www.w3.org/2000/svg">
  <defs
     id="defs10" />
  <sodipodi:namedview
     id="namedview8"
     pagecolor="#ffffff"
     bordercolor="#666666"
     borderopacity="1.0"
     inkscape:pageshadow="2"
     inkscape:pageopacity="0.0"
     inkscape:pagecheckerboard="0"
     showgrid="false"
     inkscape:zoom="1.09125"
     inkscape:cx="-190.14892"
     inkscape:cy="643.75718"
     inkscape:window-width="3840"
     inkscape:window-height="2092"
     inkscape:window-x="0"
     inkscape:window-y="0"
     inkscape:window-maximized="1"
     inkscape:current-layer="svg6" />
  <path
     fill-rule="evenodd"
     clip-rule="evenodd"
     d="m 12.000002,9.9156887 c -1.151129,0 -2.0843109,0.9331763 -2.0843109,2.0843113 0,1.151151 0.9331819,2.084311 2.0843109,2.084311 1.151152,0 2.084312,-0.93316 2.084312,-2.084311 0,-1.151135 -0.93316,-2.0843113 -2.084312,-2.0843113 z"
     fill="#000000"
     id="path2"
     style="stroke-width:0.55581;fill:none;stroke-miterlimit:4;stroke-dasharray:none;stroke:#000000;stroke-opacity:1"
     sodipodi:nodetypes="sssss" />
  <path
     fill-rule="evenodd"
     clip-rule="evenodd"
     d="m 11.073322,6.2616233 c 0.04839,-0.020033 0.121853,-0.038505 0.272727,-0.048804 0.155136,-0.010578 0.355466,-0.010838 0.653953,-0.010838 0.298489,0 0.498818,2.57e-4 0.653892,0.010838 0.150937,0.010296 0.224399,0.028771 0.272727,0.048804 0.191992,0.079524 0.344558,0.2320524 0.424038,0.424039 0.02514,0.060556 0.04589,0.1549606 0.05428,0.3787955 0.01855,0.4966741 0.27492,0.9748947 0.730048,1.2376483 0.455067,0.26276 0.997448,0.2456606 1.436844,0.013414 0.19801,-0.104665 0.290214,-0.1338621 0.355152,-0.1424181 0.206034,-0.027122 0.414386,0.028708 0.579238,0.155205 0.04156,0.031868 0.09427,0.086256 0.178641,0.2117876 0.08675,0.129042 0.187104,0.3023996 0.336348,0.5608973 0.149244,0.2585039 0.249221,0.4321122 0.317606,0.5717348 0.0665,0.1358247 0.08725,0.2086921 0.09409,0.2605915 0.02714,0.2060218 -0.02871,0.4143858 -0.155199,0.5792448 -0.03993,0.05201 -0.111262,0.11722 -0.300996,0.236383 -0.420778,0.264453 -0.706731,0.725536 -0.706793,1.250993 0,0.525521 0.285951,0.986667 0.706793,1.25112 0.189674,0.119156 0.261005,0.184345 0.300934,0.23637 0.12649,0.164852 0.18234,0.373205 0.155199,0.579238 -0.0069,0.0519 -0.02759,0.124736 -0.09409,0.260567 -0.06839,0.13959 -0.168362,0.313217 -0.317606,0.571716 -0.149244,0.258498 -0.249597,0.431872 -0.336348,0.560934 -0.08437,0.125488 -0.137084,0.179895 -0.178642,0.211738 -0.164852,0.126552 -0.373204,0.18234 -0.579238,0.15526 -0.06494,-0.0086 -0.157142,-0.0378 -0.355151,-0.142412 -0.439397,-0.232297 -0.981778,-0.249346 -1.436907,0.01341 -0.455003,0.262761 -0.71137,0.740956 -0.729923,1.237643 -0.0083,0.223835 -0.02915,0.318233 -0.05428,0.378845 -0.07948,0.19193 -0.232046,0.344497 -0.424038,0.424039 -0.04832,0.01999 -0.12179,0.03849 -0.272727,0.04876 -0.155074,0.0106 -0.355403,0.01083 -0.653892,0.01083 -0.298487,0 -0.498817,-2.51e-4 -0.653953,-0.01083 -0.150874,-0.01026 -0.224337,-0.02877 -0.272727,-0.04876 -0.191929,-0.07954 -0.34449,-0.232109 -0.424013,-0.424039 -0.02508,-0.06062 -0.04588,-0.15501 -0.05426,-0.378845 -0.01857,-0.496625 -0.274932,-0.974882 -0.7300425,-1.237642 -0.455099,-0.262756 -0.99743,-0.245644 -1.4368509,-0.01341 -0.198029,0.104678 -0.2901831,0.133887 -0.355171,0.142412 -0.2060272,0.02714 -0.414386,-0.02871 -0.579244,-0.155199 -0.041533,-0.03184 -0.094266,-0.08625 -0.1786292,-0.2118 C 7.2283958,15.330885 7.1280118,15.157508 6.9787676,14.89901 6.8295172,14.640514 6.7295781,14.466886 6.6611866,14.327294 6.5946571,14.191465 6.5739214,14.118567 6.5670896,14.066666 6.5399676,13.860633 6.5957972,13.65228 6.7223011,13.487428 6.7622037,13.435462 6.8335667,13.370214 7.023234,13.251057 7.4440636,12.986667 7.7300407,12.525521 7.7300658,12.000063 7.7300971,11.474481 7.4441075,11.013335 7.0232403,10.748883 6.8336166,10.629719 6.7622602,10.564518 6.7223573,10.512518 6.5958602,10.347659 6.54003,10.139301 6.5671521,9.9332735 6.5739844,9.8813797 6.5947193,9.8085067 6.6612493,9.672689 6.7296408,9.5330601 6.8295798,9.3594518 6.978824,9.1009479 7.1280744,8.8424502 7.2284523,8.6690926 7.3151781,8.5400506 7.3995408,8.414525 7.4522747,8.3601302 7.493801,8.3282693 7.6586653,8.2017659 7.8670241,8.1459357 8.073045,8.1730579 8.13804,8.1816179 8.2301996,8.2108109 8.4282536,8.3154949 8.8676494,8.5477353 9.4099554,8.5648285 9.8650409,8.3020869 10.320131,8.0393457 10.576485,7.561144 10.595058,7.0644887 c 0.0083,-0.2238537 0.02916,-0.3182641 0.05425,-0.3788268 0.07953,-0.1919866 0.232084,-0.3445152 0.424014,-0.4240386 z"
     fill="#000000"
     id="path4"
     style="fill:none;stroke:#000000;stroke-width:0.626813;stroke-opacity:1"
     sodipodi:nodetypes="ccssccccccccscccccccccscccccccccsccccsccccccscccccsccscccscccc" />
</svg>
